<svg width="3234" height="2156" xmlns="http://www.w3.org/2000/svg" xmlns:xlink="http://www.w3.org/1999/xlink" xml:space="preserve" overflow="hidden"><defs><clipPath id="clip0"><rect x="14" y="0" width="3234" height="2156"/></clipPath></defs><g clip-path="url(#clip0)" transform="translate(-14 0)"><g><path d="M233.5 1388.55 3197.5 1388.55M233.5 1241.54 3197.5 1241.54M233.5 1095.54 3197.5 1095.54M233.5 948.531 3197.5 948.531M233.5 802.526 3197.5 802.526M233.5 655.522 3197.5 655.522M233.5 509.517 3197.5 509.517M233.5 362.512 3197.5 362.512M233.5 216.507 3197.5 216.507M233.5 69.4999 3197.5 69.4999" stroke="#D9D9D9" stroke-width="3.4375" stroke-linejoin="round" stroke-miterlimit="10" fill="none"/></g><g><path d="M305.01 949.031 369.012 949.031 369.012 1535 305.01 1535ZM675.022 363.012 740.024 363.012 740.024 1535 675.022 1535ZM1046.03 421.014 1110.04 421.014 1110.04 1535 1046.03 1535ZM1416.05 333.011 1481.05 333.011 1481.05 1535 1416.05 1535ZM1786.06 304.01 1851.06 304.01 1851.06 1535 1786.06 1535ZM2157.07 304.01 2221.07 304.01 2221.07 1535 2157.07 1535ZM2527.08 275.009 2592.08 275.009 2592.08 1535 2527.08 1535ZM2898.09 187.006 2962.1 187.006 2962.1 1535 2898.09 1535Z" fill="#FFC000"/></g><g><path d="M387.013 656.021 451.015 656.021 451.015 1535 387.013 1535ZM757.025 597.02 822.027 597.02 822.027 1535 757.025 1535ZM1128.04 509.017 1192.04 509.017 1192.04 1535 1128.04 1535ZM1498.05 539.018 1563.05 539.018 1563.05 1535 1498.05 1535ZM1868.06 363.012 1933.06 363.012 1933.06 1535 1868.06 1535ZM2239.07 480.016 2304.08 480.016 2304.08 1535 2239.07 1535ZM2609.09 421.014 2674.09 421.014 2674.09 1535 2609.09 1535ZM2980.1 304.01 3044.1 304.01 3044.1 1535 2980.1 1535Z" fill="#7199B7"/></g><g><path d="M469.015 656.021 534.018 656.021 534.018 1535 469.015 1535ZM839.027 656.021 904.03 656.021 904.03 1535 839.027 1535ZM1210.04 568.019 1274.04 568.019 1274.04 1535 1210.04 1535ZM1580.05 421.014 1645.05 421.014 1645.05 1535 1580.05 1535ZM1951.06 509.017 2015.07 509.017 2015.07 1535 1951.06 1535ZM2321.08 392.013 2386.08 392.013 2386.08 1535 2321.08 1535ZM2691.09 333.011 2756.09 333.011 2756.09 1535 2691.09 1535ZM3062.1 275.009 3127.1 275.009 3127.1 1535 3062.1 1535Z" fill="#B6DE97"/></g><g><path d="M233.5 1534.5 3197.5 1534.5" stroke="#D9D9D9" stroke-width="3.4375" stroke-linejoin="round" stroke-miterlimit="10" fill="none" fill-rule="evenodd"/></g><g><text font-family="Abadi,Abadi_MSFontService,sans-serif" font-weight="400" font-size="83" transform="matrix(1 0 0 1 112.903 1558)">0</text></g><g><text font-family="Abadi,Abadi_MSFontService,sans-serif" font-weight="400" font-size="83" transform="matrix(1 0 0 1 44.1992 1412)">0.5</text></g><g><text font-family="Abadi,Abadi_MSFontService,sans-serif" font-weight="400" font-size="83" transform="matrix(1 0 0 1 112.903 1265)">1</text></g><g><text font-family="Abadi,Abadi_MSFontService,sans-serif" font-weight="400" font-size="83" transform="matrix(1 0 0 1 44.1992 1119)">1.5</text></g><g><text font-family="Abadi,Abadi_MSFontService,sans-serif" font-weight="400" font-size="83" transform="matrix(1 0 0 1 112.903 972)">2</text></g><g><text font-family="Abadi,Abadi_MSFontService,sans-serif" font-weight="400" font-size="83" transform="matrix(1 0 0 1 44.1992 826)">2.5</text></g><g><text font-family="Abadi,Abadi_MSFontService,sans-serif" font-weight="400" font-size="83" transform="matrix(1 0 0 1 112.903 679)">3</text></g><g><text font-family="Abadi,Abadi_MSFontService,sans-serif" font-weight="400" font-size="83" transform="matrix(1 0 0 1 44.1992 533)">3.5</text></g><g><text font-family="Abadi,Abadi_MSFontService,sans-serif" font-weight="400" font-size="83" transform="matrix(1 0 0 1 112.903 386)">4</text></g><g><text font-family="Abadi,Abadi_MSFontService,sans-serif" font-weight="400" font-size="83" transform="matrix(1 0 0 1 44.1992 240)">4.5</text></g><g><text font-family="Abadi,Abadi_MSFontService,sans-serif" font-weight="400" font-size="83" transform="matrix(1 0 0 1 112.903 93)">5</text></g><g><text font-family="Congenial,Congenial_MSFontService,sans-serif" font-weight="400" font-size="83" transform="matrix(0.707107 -0.707107 0.707107 0.707107 192.468 1856)">Trimodal</text></g><g><text font-family="Congenial,Congenial_MSFontService,sans-serif" font-weight="400" font-size="83" transform="matrix(0.707107 -0.707107 0.707107 0.707107 653.126 1766)">HA2G</text></g><g><text font-family="Congenial,Congenial_MSFontService,sans-serif" font-weight="400" font-size="83" transform="matrix(0.707107 -0.707107 0.707107 0.707107 1004.66 1785)">CAMN</text></g><g><text font-family="Congenial,Congenial_MSFontService,sans-serif" font-weight="400" font-size="83" transform="matrix(0.707107 -0.707107 0.707107 0.707107 1263.78 1896)">TalkSHOW</text></g><g><text font-family="Congenial,Congenial_MSFontService,sans-serif" font-weight="400" font-size="83" transform="matrix(0.707107 -0.707107 0.707107 0.707107 1570.81 1960)">DiffuGesture</text></g><g><text font-family="Congenial,Congenial_MSFontService,sans-serif" font-weight="400" font-size="83" transform="matrix(0.707107 -0.707107 0.707107 0.707107 2080.76 1820)">ProTalk</text></g><g><text font-family="Congenial,Congenial_MSFontService,sans-serif" font-weight="400" font-size="83" transform="matrix(0.707107 -0.707107 0.707107 0.707107 2459.23 1812)">EMAGE</text></g><g><text font-family="Congenial,Congenial_MSFontService,sans-serif" font-weight="400" font-size="83" transform="matrix(0.707107 -0.707107 0.707107 0.707107 2674 1968)">CoCoGesture</text></g><g><rect x="440" y="133" width="39.9999" height="39.9999" fill="#FFC000"/></g><g><text font-family="Congenial,Congenial_MSFontService,sans-serif" font-weight="400" font-size="92" transform="matrix(1 0 0 1 498.102 175)">Naturalness</text></g><g><rect x="1129" y="133" width="40.0002" height="39.9999" fill="#7199B7"/></g><g><text font-family="Congenial,Congenial_MSFontService,sans-serif" font-weight="400" font-size="92" transform="matrix(1 0 0 1 1187.57 175)">Smoothness</text></g><g><rect x="1831" y="133" width="39.9999" height="39.9999" fill="#B6DE97"/></g><g><text font-family="Congenial,Congenial_MSFontService,sans-serif" font-weight="400" font-size="92" transform="matrix(1 0 0 1 1889.59 175)">Coherency</text></g></g></svg>